<svg id="OLD__pccomponentes-logo" xmlns="http://www.w3.org/2000/svg" viewBox="0 0 159 60"><linearGradient id="a" x1="10021.697" x2="9973.254" y1="-239.542" y2="-239.542" gradientUnits="userSpaceOnUse" gradientTransform="matrix(1 0 0 -1 -9971.295 -205.6)"><stop offset="0" stop-color="#F08F0C"/><stop offset="1" stop-color="#E8511F"/></linearGradient><path fill="url(#a)" d="M50.394 16.78v26.882c.328 7.164-9.244 11.518-15.89 12.89-2.87.59-9.13-.835-11.73-2.35l-19.336-9.97c-.506-.344-1.48-.933-1.48-2.995v-28.13c0-3.916 3.64-.762 6.498.337L23.2 20.607c2.38 1.347 7.383 2.14 9.833 2.215 9.782.298 17.36-6.042 17.36-6.042z"/><path fill="#FF671B" d="M79.09 33.8h21.196v6.533H79.09z"/><path fill="#2E2A25" d="M103.854 10.556H62.8v29.877h9.82V28.72h31.234c2.894 0 5.263-2.37 5.263-5.264V15.82c0-2.895-2.37-5.264-5.263-5.264zm-3.568 9.788c0 1.44-1.177 2.616-2.617 2.616H72.55v-6.61c0-.02-.018-.034 0-.034h25.12c1.44 0 2.616 1.178 2.616 2.615v1.42zm57.777-.087V16.51l-.03-.002c-.26-3.48-3.175-6.25-6.717-6.25H118.49c-3.708 0-6.746 3.037-6.746 6.75V33.36c0 3.71 3.038 6.747 6.746 6.747h32.825c3.575 0 6.516-2.823 6.724-6.35l.02-.004v-3.746h-9.68v3.746h-24.35c-1.44 0-2.62-1.177-2.62-2.616V19.23c0-1.44 1.17-2.617 2.61-2.617h24.34v3.644h9.68z" opacity=".8"/><path fill="#2E2A25" d="M67.558 48.742v-.502c0-.276-.036-.48-.092-.643-.062-.152-.164-.26-.32-.333-.143-.074-.346-.125-.598-.144-.254-.018-.58-.027-.967-.027-.44 0-.8.023-1.07.073-.28.047-.49.15-.64.3-.15.153-.26.362-.29.64-.05.28-.08.645-.08 1.095v2.06c0 .46.03.83.07 1.12.05.3.14.52.28.68.14.16.36.27.63.32.28.07.65.1 1.12.1.35 0 .66-.01.93-.03.26-.02.48-.07.65-.15.17-.09.3-.22.37-.41.09-.18.13-.43.13-.77v-.51h1.77v.61c.02.7-.07 1.24-.25 1.6-.19.37-.44.64-.78.81-.33.17-.74.27-1.22.31-.47.03-1 .06-1.58.09-.82.03-1.46-.01-1.98-.13-.49-.13-.89-.33-1.16-.62-.28-.3-.46-.69-.56-1.16-.1-.48-.16-1.06-.165-1.73v-2.13c0-.74.08-1.342.227-1.814.15-.462.38-.84.696-1.11.31-.275.713-.454 1.2-.555.49-.1 1.08-.15 1.76-.15.57 0 1.1.013 1.54.04.45.03.834.13 1.155.29.317.17.56.44.74.79.176.36.28.88.32 1.54v.5H67.6zm8.398-3.06c.49.073.906.228 1.227.466.335.23.575.575.74 1.026.157.446.236 1.043.236 1.786v2.49c0 .74-.08 1.337-.22 1.803-.15.464-.39.82-.7 1.07-.32.253-.73.43-1.23.524-.5.088-1.1.135-1.81.135-.72 0-1.33-.046-1.82-.12-.5-.083-.91-.258-1.21-.503-.32-.25-.54-.62-.68-1.08-.14-.47-.21-1.08-.21-1.83v-2.49c0-.72.06-1.31.2-1.75.13-.45.34-.79.65-1.03.3-.25.7-.41 1.21-.49.5-.09 1.11-.12 1.85-.12.66-.01 1.24.03 1.74.1zm-2.88 1.498c-.28.062-.49.152-.637.288-.15.148-.24.34-.29.573-.05.24-.07.55-.08.92v2.49c0 .47.02.82.08 1.09.06.27.17.48.32.61.15.14.36.22.64.27.27.04.64.06 1.08.06.4 0 .74-.03 1.02-.07.27-.04.5-.13.67-.27.18-.14.29-.34.37-.6.07-.27.1-.62.1-1.07v-2.49c.01-.43-.03-.77-.11-1.03-.08-.24-.2-.43-.38-.55-.18-.13-.4-.2-.68-.24-.28-.03-.62-.04-1.02-.04-.47 0-.85.03-1.13.09zm12.554 7.726h-1.59l-2.94-7.768h-.037l.15 7.77H79.44v-9.255h2.847l2.52 6.876h.05l2.47-6.88h2.914v9.25h-1.78l.16-7.81h-.06l-2.92 7.81zm6.09-9.254h4.095c.615 0 1.138.04 1.565.13.42.083.77.255 1.015.484.256.236.44.564.552.976.106.41.17.94.17 1.592 0 .657-.064 1.188-.174 1.584-.114.402-.31.713-.575.933-.254.23-.6.37-1.02.45-.422.08-.93.12-1.533.12H93.5v3h-1.78v-9.26zm4.094 4.735c.32-.007.575-.032.78-.072.195-.04.355-.12.462-.23.112-.108.186-.27.22-.472.045-.196.06-.458.06-.78 0-.328-.015-.6-.05-.812-.03-.21-.104-.38-.21-.51-.107-.12-.262-.21-.46-.26-.212-.05-.475-.07-.802-.07H93.5v3.22h2.314zm9.793-4.704c.49.072.902.227 1.23.465.33.23.574.575.734 1.026.17.446.24 1.043.24 1.786v2.49c0 .74-.06 1.337-.21 1.803-.15.464-.38.82-.7 1.07-.32.253-.73.43-1.23.524-.5.088-1.09.135-1.79.135-.71 0-1.32-.046-1.82-.12-.5-.083-.91-.258-1.22-.503-.3-.25-.52-.62-.67-1.08-.13-.47-.2-1.08-.2-1.83v-2.49c0-.72.07-1.31.19-1.75.14-.45.36-.79.66-1.03.31-.25.71-.41 1.22-.49.5-.09 1.12-.12 1.85-.12.67-.01 1.25.03 1.75.1zm-2.878 1.497c-.28.062-.49.152-.64.288-.15.148-.24.34-.29.573-.04.24-.07.55-.08.92v2.49c0 .47.03.82.09 1.09.06.27.16.48.31.61.15.14.37.22.65.27.28.04.64.06 1.08.06.39 0 .74-.03 1.01-.07.28-.04.5-.13.67-.27.17-.14.29-.34.37-.6.08-.27.11-.62.11-1.07v-2.49c.01-.43-.02-.77-.1-1.03-.09-.24-.21-.43-.38-.55-.17-.13-.4-.2-.68-.24-.28-.03-.63-.04-1.01-.04-.48 0-.86.03-1.14.09zm13.16-1.528h1.77v9.255h-2.94l-3.95-7.74h-.06l.14 7.74h-1.78v-9.255h2.94l3.96 7.736h.05l-.15-7.736zm5.03 3.828h4.33v1.455h-4.33v2.454h4.6v1.51h-6.39v-9.25h6.34v1.51h-4.56v2.31zm12.76-3.828h1.78v9.255h-2.95l-3.94-7.74h-.06l.14 7.74h-1.78v-9.255h2.92l3.97 7.736h.05l-.16-7.736zm7.09 9.254H139v-7.74h-2.716v-1.514h7.21v1.514h-2.715v7.74zm5.16-5.426h4.33v1.455h-4.33v2.454h4.6v1.51h-6.39v-9.25h6.35v1.51h-4.57v2.31zm7.33 2.477v.433c0 .26.03.466.1.623.06.15.18.267.33.336.16.07.38.12.64.14.27.01.61.03 1.01.03.41 0 .73-.02.96-.06.25-.04.44-.12.56-.23.13-.11.22-.25.26-.42.04-.17.06-.39.06-.67 0-.33-.05-.58-.13-.74-.1-.16-.23-.27-.4-.34-.18-.07-.4-.11-.66-.11l-.91-.04c-.5-.04-.96-.07-1.4-.11-.44-.05-.82-.14-1.14-.31-.325-.16-.577-.43-.76-.79-.19-.35-.28-.87-.28-1.55 0-.64.093-1.13.283-1.48.193-.36.46-.62.8-.79.34-.17.746-.27 1.206-.3.47-.03.977-.05 1.537-.05.48 0 .92.02 1.34.05.41.03.784.12 1.082.28.32.15.56.4.74.74.18.34.275.8.275 1.42v.29H157v-.29c0-.25-.03-.45-.083-.59-.05-.14-.14-.24-.273-.31-.13-.07-.31-.11-.51-.13-.2-.01-.47-.01-.79-.01-.43 0-.794.015-1.06.04-.27.03-.474.09-.61.17-.14.08-.25.2-.298.35-.05.15-.07.353-.07.6 0 .29.02.51.06.67.037.15.135.272.27.35.147.082.34.14.62.175.276.03.63.06 1.08.09.72.04 1.31.09 1.77.152.47.06.84.18 1.12.36.27.18.462.44.58.77.106.33.165.8.165 1.38 0 .65-.08 1.164-.23 1.54-.16.38-.38.66-.68.85-.3.2-.68.32-1.14.37-.44.044-.97.07-1.56.07-.5 0-1-.01-1.47-.033-.47-.015-.88-.105-1.24-.27-.36-.16-.64-.414-.85-.76-.21-.36-.32-.86-.32-1.526v-.43h1.78v.006z" opacity=".4"/><linearGradient id="b" x1="385.165" x2="365.024" y1="-214.783" y2="-214.783" gradientUnits="userSpaceOnUse" gradientTransform="matrix(1 0 0 -1 -341.34 -205.6)"><stop offset="0" stop-color="#F08F0C"/><stop offset="1" stop-color="#E8511F"/></linearGradient><path fill="url(#b)" d="M24.99 13.608c2.06 1.166 6.475 2.592 8.148 2.63h.122c2.22 0 5.978-1.322 9.79-3.095.66-.424 1.68-1.442-.826-2.728-4.402-2.26-12.04-6.022-12.04-6.022-2.86-1.098-6.5-4.283-6.498-.366v8.945l1.304.636z"/></svg>
