<?xml version="1.0" encoding="utf-8"?>
<!-- Generator: Adobe Illustrator 22.0.1, SVG Export Plug-In . SVG Version: 6.00 Build 0)  -->
<svg version="1.1" id="imagotipo" xmlns="http://www.w3.org/2000/svg" xmlns:xlink="http://www.w3.org/1999/xlink" x="0px" y="0px"
	 viewBox="0 0 150 50" style="enable-background:new 0 0 150 50;" xml:space="preserve">
<style type="text/css">
	.st0{fill:#444444;}
	.st1{fill:url(#SVGID_1_);}
</style>
<path class="st0" d="M52.3,29.2v5.3h-4.1v-15h4.1v1.1c0.9-1,1.9-1.4,3.1-1.4c2.7,0,4.8,2,4.8,5.7c0,3.7-2.1,5.7-4.8,5.7
	C54.3,30.6,53.2,30.2,52.3,29.2z M56,24.9c0-1.4-0.9-2.1-2-2.1c-0.5,0-1.3,0.3-1.7,0.7v2.8c0.4,0.5,1.1,0.7,1.7,0.7
	C55.1,27,56,26.2,56,24.9z"/>
<path class="st0" d="M61.7,30.3V19.4h4.1v1.2c0.7-0.8,2.1-1.5,3.3-1.5V23c-0.2-0.1-0.5-0.1-0.9-0.1c-0.9,0-2,0.2-2.4,0.8v6.7H61.7z"
	/>
<path class="st0" d="M69.7,24.9c0-3.2,2.4-5.7,5.9-5.7c3.2,0,5.7,2.3,5.7,6.1v0.8h-7.4c0.2,0.7,1,1.4,2.3,1.4c0.6,0,2-0.3,2.5-0.8
	l1.7,2.5c-1.1,0.9-3,1.4-4.6,1.4C72.4,30.6,69.7,28.4,69.7,24.9z M75.7,22.2c-1.2,0-1.6,0.8-1.8,1.3h3.6
	C77.3,23.1,77,22.2,75.7,22.2z"/>
<path class="st0" d="M96.6,30.3V24c0-0.7-0.3-1.2-1.2-1.2s-1.4,0.5-1.7,0.9v6.7h-4.1V24c0-0.7-0.3-1.2-1.2-1.2
	c-0.9,0-1.4,0.5-1.6,0.9v6.7h-4.1V19.4h4.1v1.2c0.5-0.6,1.8-1.5,3.6-1.5c1.5,0,2.6,0.6,3.1,1.9c0.6-0.9,2.1-1.9,3.8-1.9
	c2,0,3.4,1,3.4,3.3v7.9H96.6z"/>
<path class="st0" d="M102.7,16.4c0-1.3,1-2.3,2.3-2.3s2.3,1,2.3,2.3c0,1.3-1,2.3-2.3,2.3S102.7,17.6,102.7,16.4z M102.9,30.3V19.4
	h4.1v10.9H102.9z"/>
<path class="st0" d="M116.6,30.3v-1.2c-0.6,0.7-1.8,1.5-3.7,1.5c-2.5,0-3.6-1.5-3.6-3.4v-7.8h4.1v6c0,1.1,0.6,1.5,1.6,1.5
	c0.9,0,1.4-0.5,1.7-0.9v-6.7h4.1v10.9H116.6z"/>
<path class="st0" d="M136.8,30.3V24c0-0.7-0.3-1.2-1.2-1.2s-1.4,0.5-1.7,0.9v6.7h-4.1V24c0-0.7-0.3-1.2-1.2-1.2
	c-0.9,0-1.4,0.5-1.6,0.9v6.7h-4.1V19.4h4.1v1.2c0.5-0.6,1.8-1.5,3.6-1.5c1.5,0,2.6,0.6,3.1,1.9c0.6-0.9,2.1-1.9,3.8-1.9
	c2,0,3.4,1,3.4,3.3v7.9H136.8z"/>
<linearGradient id="SVGID_1_" gradientUnits="userSpaceOnUse" x1="9.55" y1="24.51" x2="41.13" y2="24.51">
	<stop  offset="0" style="stop-color:#EF8E09"/>
	<stop  offset="1" style="stop-color:#E7501E"/>
</linearGradient>
<path class="st1" d="M39.2,24.5l2-2l-2.4-1.4l1.4-2.4l-2.7-0.8l0.8-2.7l-2.8-0.1l0.1-2.8l-2.7,0.6l-0.6-2.7l-2.5,1.3l-1.3-2.5
	l-2.1,1.8l-1.9-2.1L22.8,11l-2.3-1.6l-1,2.6l-2.6-0.9l-0.3,2.8l-2.8-0.3l0.4,2.8l-2.8,0.5l1.1,2.6L10,20.5l1.7,2.2l-2.2,1.7l2.2,1.7
	L10,28.4l2.6,1.1l-1.1,2.6l2.8,0.4l-0.4,2.8l2.8-0.3l0.3,2.8l2.6-0.9l1,2.6l2.3-1.6l1.6,2.3l1.9-2.1l2.1,1.8l1.3-2.5l2.5,1.3
	l0.6-2.7l2.7,0.6l-0.1-2.8l2.8-0.1l-0.8-2.7l2.7-0.8L38.7,28l2.4-1.4L39.2,24.5z M24.6,16.7c0-1.2,1.1-0.2,2,0.1
	c0,0,2.3,1.2,3.7,1.9c0.8,0.4,0.5,0.7,0.3,0.8c-1.2,0.5-2.3,1-3,1h0c-0.5,0-1.9-0.5-2.5-0.8l-0.4-0.2V16.7z M32.8,28.9
	c0.1,2.2-2.8,3.5-4.9,3.9c-0.9,0.2-2.8-0.3-3.6-0.7L18.4,29c-0.2-0.1-0.5-0.3-0.5-0.9v-8.6c0-1.2,1.1-0.2,2,0.1l4.5,2.2
	c0.7,0.4,2.3,0.7,3,0.7c3,0.1,5.3-1.8,5.3-1.8V28.9z"/>
</svg>
